<svg xmlns="http://www.w3.org/2000/svg" width="318.912" height="57.311" viewBox="0 0 318.912 57.311">
  <g id="winsocial" transform="translate(-23.211 -34.999)">
    <path id="Path_3" data-name="Path 3" d="M73.3,54.686,62.731,77.29l-9.917-22.6H51.356L41.294,77.363,30.721,54.686h-7.51L40.419,91.873h1.75l9.917-21.729,9.844,21.729h1.75L80.814,54.686Z" fill="#673cbc"/>
    <path id="Path_4" data-name="Path 4" d="M91.154,44.843A4.71,4.71,0,1,1,96.112,40.1a4.827,4.827,0,0,1-4.958,4.739Zm3.719,9.916V91.144H87.654V54.759Z" fill="#673cbc"/>
    <path id="Path_5" data-name="Path 5" d="M123.209,53.957c-5.031,0-8.312,1.6-10.135,4.083V54.686h-7.219V91.144h7.219V71.092c0-7.219,4.885-9.7,10.135-9.7,2.917,0,7.948,2.188,7.948,8.969V91.144h7.218V70.363C138.375,57.457,129.917,53.957,123.209,53.957Z" fill="#673cbc"/>
    <path id="Path_6" data-name="Path 6" d="M161.221,69.051c-2.042-.437-3.5-.8-4.886-1.24-2.041-.656-2.406-2.115-2.406-3.792,0-2.26,1.386-4.083,4.521-4.083,2.552,0,5.031,1.094,5.031,2.844h7.292c-.73-5.031-4.886-8.9-12.323-8.9-7.073,0-11.375,4.448-11.375,10.208,0,5.031,3.792,8.531,9.26,9.989l4.886,1.167a5.4,5.4,0,0,1,4.52,5.177c0,2.552-2.187,5.031-6.343,5.031-4.083,0-6.854-2.7-6.854-5.25h-7.583c0,6.708,6.926,11.593,14.437,11.593s13.489-4.74,13.489-11.448c0-6.125-5.1-9.989-11.666-11.3Z" fill="#673cbc"/>
    <path id="Path_7" data-name="Path 7" d="M197.253,91.581A18.7,18.7,0,1,1,215.92,72.842a18.733,18.733,0,0,1-18.667,18.739Zm-.146-6.344c6.2,0,11.229-5.469,11.229-12.25,0-6.708-5.031-12.25-11.229-12.25-6.27,0-11.228,5.542-11.228,12.25C185.879,79.769,190.837,85.238,197.107,85.238Z" fill="#673cbc"/>
    <path id="Path_8" data-name="Path 8" d="M249.083,65.478h8.166A17.511,17.511,0,0,0,240.771,54.03a18.812,18.812,0,1,0,0,37.624,17.39,17.39,0,0,0,16.551-11.666h-7.947a9.956,9.956,0,0,1-8.677,5.25c-6.344,0-11.375-5.469-11.375-12.323,0-6.708,5.031-12.25,11.375-12.25a9.644,9.644,0,0,1,8.385,4.812Z" fill="#673cbc"/>
    <path id="Path_9" data-name="Path 9" d="M269.668,44.843a4.71,4.71,0,1,1,4.958-4.739,4.827,4.827,0,0,1-4.958,4.739Zm3.718,9.916V91.144h-7.218V54.759Z" fill="#673cbc"/>
    <path id="Path_10" data-name="Path 10" d="M312.66,91.144V86.769S309.015,91.8,300.994,91.8a18.776,18.776,0,1,1,0-37.551c8.021,0,11.666,5.031,11.666,5.031V54.686h7.073V91.144Zm-11.52-5.687c6.343,0,11.375-5.541,11.375-12.25,0-6.781-5.032-12.4-11.375-12.4s-11.375,5.615-11.375,12.4C289.765,79.915,294.8,85.457,301.14,85.457Z" fill="#673cbc"/>
    <path id="Path_11" data-name="Path 11" d="M337.165,80.644V35l-7.291,2.188V80.644c0,8.24,4.3,11.666,12.249,11.666V85.019c-3.062,0-4.958-1.021-4.958-4.375Z" fill="#673cbc"/>
  </g>
</svg>
